<?xml version="1.0" encoding="UTF-8"?>
<svg id="Layer_1" xmlns="http://www.w3.org/2000/svg" version="1.1" xmlns:inkscape="http://www.inkscape.org/namespaces/inkscape" xmlns:sodipodi="http://sodipodi.sourceforge.net/DTD/sodipodi-0.dtd" xmlns:svg="http://www.w3.org/2000/svg" viewBox="0 0 187 103.7">
  <!-- Generator: Adobe Illustrator 29.7.1, SVG Export Plug-In . SVG Version: 2.1.1 Build 8)  -->
  <g id="svg1" inkscape:version="1.4.2 (f4327f4, 2025-05-13)">
    <sodipodi:namedview id="namedview1" bordercolor="#000000" borderopacity="0.25" inkscape:current-layer="g1" inkscape:cx="163.5077" inkscape:cy="73.95716" inkscape:deskcolor="#d1d1d1" inkscape:document-units="in" inkscape:pagecheckerboard="0" inkscape:pageopacity="0.0" inkscape:showpageshadow="2" inkscape:window-height="992" inkscape:window-maximized="1" inkscape:window-width="1920" inkscape:window-x="-8" inkscape:window-y="-8" inkscape:zoom="3.366814" pagecolor="#ffffff"/>
    <g id="g1" inkscape:groupmode="layer" inkscape:label="Image">
      <path id="path2" d="M56.1,101.8c-2.3-1.5-2.6-1.5-4.3-.4-1.5,1-3.2,1.1-10.1.7-6-.3-8.4-.8-8.7-1.5-.7-1.8,3.2-2.7,10-2.2,4.8.3,6.8.2,8.5-.7,2-1,2.4-1,4.7.4,3.1,1.9,4.7,1.9,7.6,0,2.8-1.9,4.2-1.9,6.6,0s4.1,1.9,6.5,0c1-.8,2.4-1.5,3-1.5s2,.7,3,1.5c2.4,1.9,3.4,1.9,6.5,0l2.5-1.6,2.7,1.7,2.7,1.7,3.6-1.7,3.6-1.7,3,1.7,3,1.7,2.7-1.7,2.7-1.7,2.9,1.7,2.9,1.7,2.2-1.6c2.7-1.9,4-2,7-.4,1.8.9,4.1,1.2,9.9,1,9.6-.2,9.4-.2,9.4,1.4s-.9,1.4-8.8,1.8c-7.8.4-9.1.2-11.4-1.1q-2.5-1.5-4.2,0c-2,1.8-6.1,2-8.5.4-1.5-1-1.9-1-4.5.4-3.6,1.9-3.8,1.9-7-.3-2.6-1.8-2.7-1.8-4.4-.4-2,1.6-6.6,1.8-8.5.4-1.1-.9-1.8-.8-4.4.5l-3.1,1.5-2.9-1.6-2.9-1.6-2.7,1.5c-3.5,1.9-4.7,1.8-7.1,0-2.4-1.9-2.9-1.9-6,0s-4.8,1.9-7.9,0h.2ZM2.6,79.4v-7.5h2.9c5.2,0,8.1,5,6.2,10.8-1,3.1-2.6,4.2-6.3,4.2h-2.7v-7.5h0ZM9.1,78.4c-.4-2.8-1.7-4.5-2.9-3.7-.8.5-.8,8.8,0,9.6s1.2-.2,2-1.2c1-1.3,1.3-2.5,1-4.7h-.1ZM14.5,79.4c1.8-6.7,2.2-7.5,3.6-7.5s1.7,0,4,9.2c.4,1.8,1,3.8,1.2,4.5.3.9,0,1.3-1.1,1.3s-1.6-.7-2-1.9c-.3-1.3-.8-1.8-1.6-1.5-.6.2-1.5.4-1.8.4s-.7.7-.7,1.5-.5,1.5-1.8,1.5h-1.8l2-7.5ZM18.7,80.2c.3-.4.1-1.3-.3-2.1-.4-.7-.8-.9-.8-.4s-.2,1.4-.5,2.1c-.5,1.3.8,1.7,1.6.4ZM26.6,79.4c0-7.3,0-7.5,1.7-7.5s1.7.3,1.4,3.4l-.3,3.4,2.4-1.2c2.1-1.1,2.4-1.5,2-3.4-.4-1.9-.2-2.2,1.2-2.2s1.7.2,1.7,7.5,0,7.5-1.6,7.5-1.6-.3-1.2-2.6c.6-3.9,0-5-2.4-3.9-1.7.8-1.9,1.3-1.7,3.7.2,2.5,0,2.8-1.5,2.8s-1.7-.2-1.7-7.5h0ZM40.1,79.4v-7.5h1.9c1.4,0,1.9.4,1.9,1.7s.9,2.7,1.9,3.9l1.9,2.2-.2-3.9c-.2-3.7,0-3.9,1.5-3.9s1.7.2,1.7,7.5,0,7.5-1.3,7.5-1.9-1.3-2.8-3.1c-2.2-4.5-3.6-4.6-3.2-.3.3,3.2,0,3.5-1.4,3.5s-1.7-.2-1.7-7.5h-.2ZM57.2,80.5l.2-6.4-1.9.5c-1.6.4-1.9.2-1.9-1.1s.4-1.6,5.2-1.6,5.2,0,5.2,1.9-.2,1.8-1.5,1.1c-.8-.4-1.6-.8-1.9-.8s-.4,2.9-.4,6.4c0,6.1,0,6.4-1.7,6.4s-1.7-.2-1.5-6.4h.2ZM63.7,85.6c.2-.7.7-2.7,1.1-4.3,2.3-9.3,2.3-9.4,4.1-9.4s1.9.7,3.6,7.5l1.9,7.5h-1.8c-1.4,0-1.8-.4-1.8-2s-.3-1.8-1.2-1.5c-.7.3-1.5.5-1.8.5s-.9.7-1.1,1.5c-.6,1.9-3.7,2.1-3.1.2h.1ZM69.4,80v-1.7c0-.6-.3-1-.8-.7-1,.6-1,3.6,0,3.2s.8-.5.8-.8h0ZM77.2,79.4c0-7.3,0-7.5,1.7-7.5s1.7.4,1.7,3.3,0,3.3,1.9,2.4c1.6-.7,1.9-1.3,1.7-3.3-.2-2.1,0-2.4,1.5-2.4s1.7.2,1.7,7.5,0,7.5-1.5,7.5-1.5-.5-1.5-3.7,0-3.7-1.9-2.9c-1.7.8-2.3,2.5-1.9,5.7,0,.5-.7.9-1.6.9-1.7,0-1.7-.2-1.7-7.5h0ZM90.7,79.4c0-7.3,0-7.5,1.7-7.5s1.7.5,1.7,1.2.8,2.4,1.9,3.9l1.9,2.8v-3.9c0-3.4.2-3.9,1.5-3.9s1.5.7,1.7,7.5c.3,8.8-.6,9.7-4.3,3.9l-2.2-3.5-.2,3.6c-.2,3.1-.4,3.6-1.9,3.6s-1.6-.3-1.6-7.5h0l-.2-.2ZM107.8,79.4c.2-7.1.3-7.5,1.8-7.5s1.6.3,1.2,3.1c-.4,3-.4,3.1,1.4,2.6,1-.3,2.1-.5,2.4-.5s.5-1.2.3-2.6c-.3-2.3,0-2.6,1.4-2.6s1.7.2,1.7,7.5,0,7.5-1.7,7.5-1.7-.3-1.4-3.5c.3-3.3.2-3.5-1.5-3-1,.3-2.1.5-2.4.5s-.5,1.4-.4,3c.3,2.7,0,3-1.4,3s-1.7,0-1.5-7.5h0ZM121.5,79.4v-7.5h4.3c3.7,0,4.3.2,4.3,1.3s-.5,1.3-2.6,1c-2.5-.3-2.6-.2-2.6,2.1s.2,2.3,1.5,1.6c2-1.1,3-1,3,.3s-1,1.5-2.3,2.1c-1.6.7-2.2,1.4-2.1,2.5.2,1.2.7,1.5,2.7,1.3,2-.2,2.4,0,2.4,1.3s-.5,1.5-4.3,1.5h-4.3v-7.5ZM131.8,84.9c.2-1.1.8-4.5,1.4-7.5.9-4.8,1.2-5.4,2.7-5.4s1.8.6,2.2,2.6c.3,1.4.8,2.6,1.2,2.6s.7-1.2.7-2.6c0-2.4.2-2.6,2.2-2.6s2.3.3,2.3,2.1.3,3.2.7,4.7.9,3.9,1.1,5.4c.3,2.4.2,2.8-1,2.8s-2.3-2-2.3-5.4-.3-2.2-.7-2.5c-.9-.5-1.9,4.3-1.3,6.4.3,1.2,0,1.5-1.3,1.5s-1.8-.5-2.2-4.1c-.3-2.3-.8-4.1-1.1-4.1s-.8,1.9-1.1,4.1c-.4,3.5-.8,4.1-2.1,4.1s-1.5-.4-1.1-2.1h-.3ZM148.1,79.4v-7.5h3.7c4.2,0,5.6,1.1,5.2,4.3-.2,1.5-1.1,2.7-3.1,4-2.6,1.7-2.8,2.1-2.5,4.3.4,2.2.2,2.5-1.4,2.5s-1.8,0-1.8-7.5h0ZM154,75.9c.2-1.3-.1-1.7-1.3-1.7s-1.6.5-1.6,1.9c0,2.5,2.5,2.2,2.9-.3h0ZM163.6,85.6c-.9-1-1.2-2.8-1.2-7.5v-6.1h4.1c3.5,0,4.1.2,4.1,1.3s-.5,1.3-2.6,1l-2.6-.3v4.9c0,5.2.6,6.1,3.7,5.3,1.2-.3,1.6,0,1.6,1.2s-.4,1.6-2.9,1.6-3.3-.5-4.1-1.4h-.1ZM173.3,85.3c-.7-1-1.2-3.3-1.2-5.8,0-5.3,1.4-7.5,4.7-7.5s2.9.3,3.5.7c2.3,1.4,2.2,12.2,0,13.6-2,1.3-5.8.7-7-1h0ZM178.9,79.4c0-3-.3-4.5-1-4.7-1.7-.7-2.7,1.1-2.7,4.7s1,5.4,2.7,4.7c.7-.3,1-1.7,1-4.7ZM184.6,86.4c-1.1-1.1-.5-2.5,1-2.5s1.5.4,1.3,1.3c-.3,1.4-1.5,2.1-2.4,1.3h0ZM.6,61c-.6-1.7,1.1-2.5,5.2-2.5h3.6v-10.4l-3.5,1.1c-4.4,1.3-5.2,1.3-5.8,0-.3-.7,0-1.3.9-1.6,10.5-3.6,21.3-8.5,27.2-12.4,12.2-8,27-24.8,26.1-29.5-.2-1.1,0-1.9.3-1.9s.6-.7.6-1.5c0-1.2.5-1.5,2.6-1.5s2.6.3,2.6,1.1.5,1.3,1.1,1.6c.7.3,1.1,1.3,1,3.2l-.2.9-.3-.6c-1.4-3.4-2.7-3-3.1.8-.3,3.2-.8,3.1,7.7,1.8l6-.9-.2-2.4c0-1.3,0-2.4.5-2.4s.9-.8,1-1.7c.2-1.4.8-1.7,3.1-1.9C79.4,0,79.8.2,79.8,1.5s.5,1.8,1.1,2c.6.2,1.1,1.4,1.1,2.5,0,1.7,1.2,3.2,5.8,7.4,3.2,2.9,6.1,5.3,6.4,5.3s.5-3.2.5-7.1,0-7.4.3-7.6c.3-.3.5-1.1.5-1.9s.6-1.4,2.6-1.4,2.6.3,2.6,1.1.5,1.3,1.1,1.6c.7.3,1.1,1.5,1.1,3.4v3l4.3-.5c5.2-.6,5.4-.8,5.4-2.9s.4-2.6.9-3.7c.8-1.7,1.4-2,3.7-2s2.9.4,3.2,1.5c.3.8.8,1.5,1.2,1.5s.7.8.7,1.7c0,2.2,16.5,18.5,25.4,25.1,7.8,5.8,20.8,12.2,30.1,15,4.7,1.4,7.1,2.5,7.1,3.2,0,1.5-2.6,1.7-7.4.5-2.3-.6-4.3-.9-4.6-.7-.2.2-.4,2.6-.4,5.2v4.8h5.9c4.7,0,6,.2,6.4,1.2.3.7.3,1.5,0,1.9-.2.4-37.9.7-92.3.7-83.5,0-91.9,0-92.3-1.2h.4ZM19.7,51.1c.1-4.3,0-6.9-.5-6.9s-1.9.6-3.4,1.3l-2.7,1.3v11.8l3.2-.2,3.2-.2.2-6.9v-.2ZM29,48.7c-.1-5.1-.3-9.5-.5-9.6-.1,0-1.4.5-2.9,1.5l-2.7,1.7v16.2l3.2-.2,3.2-.2-.2-9.4h-.1ZM38.6,45.3c0-7.2-.2-13.1-.4-13.1s-1.6.9-3,2l-2.6,2v22.3h6v-13.1h0ZM47.6,40.6v-17.8l-3,3-3,3v29.6h6v-17.8ZM55,38.7c0-10.8-.3-20.7-.6-21.9l-.5-2.2-1.7,2.1c-1.6,2.1-1.7,2.6-1.7,21.4s.2,19.5.5,19.8,1.3.5,2.2.5h1.7v-19.7h0ZM64.3,47c0-6.3.2-14.1.2-17.4,0-5.8,1-9.4,2.7-9.4s.7,7.3.7,19.1v19.1h5.2v-16.9c0-13.6-.2-17.3-1.1-19.1-1.3-2.4-3.2-3.7-5.6-3.7s-6.7,4.4-6.9,6.4v33.3h4.6l.2-11.4h0ZM80.6,31.4c0-26.5,0-27-1.5-27s-1.5.5-1.5,27,0,27,1.5,27,1.5-.5,1.5-27ZM85.9,37.2V15.9l-1.9-1.8-1.9-1.8v46h3.8v-21.2h0ZM94.9,41.3v-17.1l-2.2-2.1c-1.2-1.2-2.5-1.9-2.7-1.7-.7.7-1.3,28.9-.7,33.8q.5,4.2,3.1,4.2h2.6v-17.1h-.1ZM105.4,45.3c0-11-1.1-14-1.1-13.1-.5,10.6-1.3,12.3-1.4-.8,0-5.6.5-4.1.9-5.2.7-1.8.8-1.8.8-.2s1.2,2.3,4.1,3.9c2.2,1.3,4.2,2.3,4.5,2.3.8,0,.5-5.7-.3-8-1.2-3.1-3.7-5.5-5.8-5.5s-3,1.1-4.7,2.9l-2.9,2.9v33.9h6v-13.1h0ZM113.6,47.6v-10.8l-2-1.3c-1.6-1.1-2.1-1.1-2.6-.3-.4.6-.6,6-.7,12.1v11.1h5.2v-10.8h0ZM121.1,31.4V4.3l-1.7.2-1.7.2-.2,26.8-.2,26.8h3.8v-27.1.2ZM130.4,56.7c.2-.9.5-3.6.5-6,0-4.3,0-4.4-2.6-5.4-1.4-.6-2.9-1.1-3.4-1.1s-.8,2.7-.8,7.1v7.1h2.9c2.4,0,3-.3,3.4-1.7h0ZM139.9,54c0-3.8-.2-4.5-1.5-4.9-.8-.2-2.2-.6-3-.9-1.4-.4-1.5,0-1.5,4.9v5.3h6s0-4.4,0-4.4ZM149.6,47.3v-11.2l-2.6-2c-1.4-1.1-2.8-2-3-2s-.4,5.9-.4,13.1v13.1h6v-11.2.2ZM159.4,50.2v-8.2l-2.7-1.7c-3.7-2.3-4-1.5-4,9.2v8.8h6.8v-8.2h0ZM169.9,52.5v-5.9l-3-1.4c-1.7-.7-3.2-1.2-3.4-1s-.6,3.5-.9,7.2l-.5,6.9h7.7v-5.9h0ZM140.6,37.6v-8l-2.8-2.8c-1.5-1.6-3-2.8-3.4-2.8s-.6,4.5-.6,10.1v10.1l2.4.7c4.4,1.3,4.3,1.5,4.3-7.2h.1ZM130.4,40.7c.3-.7.4-5.5.4-10.7v-9.5l-3.4-3.7c-1.8-2-3.4-3.6-3.5-3.4s0,6.3,0,13.5l.2,13.2,2.4.8q3.3,1.1,3.8-.3h.1ZM102.4,7.8c0-2.1-.3-2.6-1.5-2.6s-1.5.5-1.5,2.6.3,2.6,1.5,2.6,1.5-.5,1.5-2.6Z" sodipodi:nodetypes="csssssscssssccccccccccccssssssssssssscccsscccccsssccsssssssssssssssscsssccsssscsssssscsssscssscssssssssscssssssscssssscsssssscssscssssssssssssssssscsssscssssscsscsssssscsssccsssssssssssccssssssscssscssssssssscsssssssssssscssscssssscscssccssssssssssscccssssssssssscssscsssssssscscssssscssscssssssssscsscsssssscccccscssccccccssscccccsccccccccccccssssccsssscccssscccccsssssscccccccccccscssccsssscssssscccccsccssscccccccccccccssssscsssssscccsccsssccccccssccccccsssccccscssscsscscssscsccsssss"/>
    </g>
  </g>
</svg>